<svg width="562.453" height="370.893" viewBox="0 0 421.84 278.17" class="displayed_equation" xmlns="http://www.w3.org/2000/svg">
  <path d="M39.121094 232.734375C39.121094 230.4375 38.117188 229.109375 36.679688 229.109375 35.0625 229.109375 34.203125 230.582031 34.203125 232.699219 34.203125 234.675781 34.859375 236.394531 36.65625 236.394531 38.40625 236.394531 39.121094 234.640625 39.121094 232.734375zM38.039063 232.800781C38.039063 234.941406 37.539063 235.992188 36.65625 235.992188 35.761719 235.992188 35.273438 234.921875 35.273438 232.757813 35.273438 230.546875 35.761719 229.488281 36.644531 229.488281 37.558594 229.488281 38.039063 230.535156 38.039063 232.800781M39.078125 204.1875L38.753906 204.1875C38.496094 204.855469 38.351563 205.089844 37.757813 205.089844L36.210938 205.089844 35.429688 205.121094 35.429688 205.066406 36.902344 203.671875C38.085938 202.476563 38.71875 201.710938 38.71875 200.714844 38.71875 199.542969 37.835938 198.785156 36.578125 198.785156 35.496094 198.785156 34.738281 199.410156 34.390625 200.492188L34.660156 200.605469C35.070313 199.765625 35.5625 199.511719 36.289063 199.511719 37.148438 199.511719 37.679688 200.046875 37.679688 200.882813 37.679688 202.054688 37.125 202.757813 36.019531 203.894531L34.324219 205.589844 34.324219 205.96875 38.71875 205.96875 39.078125 204.1875M39.265625 173.90625L39.265625 173.136719 38.128906 173.136719 38.128906 168.476563 37.449219 168.476563 34.046875 173.203125 34.046875 173.90625 37.136719 173.90625 37.136719 175.671875 38.128906 175.671875 38.128906 173.90625zM37.136719 173.136719L34.660156 173.136719 34.660156 173.09375 37.089844 169.691406 37.136719 169.691406 37.136719 173.136719M38.53125 138.0625C36.132813 138.164063 34.402344 139.714844 34.402344 142.402344 34.402344 144.042969 35.125 145.402344 36.789063 145.402344 38.195313 145.402344 39 144.523438 39 143.007813 39 141.542969 38.207031 140.660156 36.992188 140.660156 36.410156 140.660156 35.996094 140.90625 35.539063 141.355469L35.460938 141.34375C35.742188 139.714844 36.992188 138.621094 38.550781 138.386719zM38.027344 143.09375C38.027344 144.511719 37.582031 145.015625 36.835938 145.015625 35.863281 145.015625 35.40625 144.019531 35.40625 142.636719 35.40625 141.667969 36.007813 141.308594 36.65625 141.308594 37.582031 141.308594 38.027344 142.089844 38.027344 143.09375M38.898438 113.296875C38.898438 112.402344 38.496094 111.867188 37.191406 111.074219L37.191406 111.042969C38.226563 110.476563 38.628906 110.105469 38.628906 109.292969 38.628906 108.410156 37.78125 107.75 36.679688 107.75 35.449219 107.75 34.558594 108.386719 34.558594 109.402344 34.558594 110.160156 34.804688 110.617188 35.941406 111.410156L35.941406 111.445313C34.90625 112.136719 34.414063 112.492188 34.414063 113.386719 34.414063 114.523438 35.351563 115.105469 36.644531 115.105469 37.972656 115.105469 38.898438 114.46875 38.898438 113.296875zM37.804688 109.269531C37.804688 109.980469 37.582031 110.417969 36.84375 110.863281 35.851563 110.261719 35.429688 109.859375 35.429688 109.203125 35.429688 108.523438 35.898438 108.121094 36.65625 108.121094 37.371094 108.121094 37.804688 108.53125 37.804688 109.269531zM36.277344 111.621094C37.625 112.492188 37.960938 112.90625 37.960938 113.621094 37.960938 114.378906 37.382813 114.757813 36.6875 114.757813 35.839844 114.757813 35.28125 114.300781 35.28125 113.296875 35.28125 112.527344 35.640625 112.136719 36.277344 111.621094M33.152344 84.671875L33.152344 84.355469C32.125 84.355469 31.714844 84.15625 31.714844 83.609375L31.714844 77.542969 31.390625 77.542969 29.226563 78.152344 29.226563 78.523438C29.570313 78.410156 30.140625 78.34375 30.363281 78.34375 30.640625 78.34375 30.730469 78.5 30.730469 78.890625L30.730469 83.609375C30.730469 84.167969 30.339844 84.355469 29.292969 84.355469L29.292969 84.671875 33.152344 84.671875M39.121094 81.132813C39.121094 78.835938 38.117188 77.507813 36.679688 77.507813 35.0625 77.507813 34.203125 78.980469 34.203125 81.101563 34.203125 83.074219 34.859375 84.792969 36.65625 84.792969 38.40625 84.792969 39.121094 83.042969 39.121094 81.132813zM38.039063 81.199219C38.039063 83.34375 37.539063 84.390625 36.65625 84.390625 35.761719 84.390625 35.273438 83.320313 35.273438 81.15625 35.273438 78.945313 35.761719 77.886719 36.644531 77.886719 37.558594 77.886719 38.039063 78.9375 38.039063 81.199219M33.152344 54.371094L33.152344 54.058594C32.125 54.058594 31.714844 53.855469 31.714844 53.3125L31.714844 47.242188 31.390625 47.242188 29.226563 47.855469 29.226563 48.222656C29.570313 48.109375 30.140625 48.046875 30.363281 48.046875 30.640625 48.046875 30.730469 48.199219 30.730469 48.589844L30.730469 53.3125C30.730469 53.867188 30.339844 54.058594 29.292969 54.058594L29.292969 54.371094 33.152344 54.371094M39.078125 52.585938L38.753906 52.585938C38.496094 53.253906 38.351563 53.488281 37.757813 53.488281L36.210938 53.488281 35.429688 53.523438 35.429688 53.46875 36.902344 52.070313C38.085938 50.878906 38.71875 50.109375 38.71875 49.113281 38.71875 47.941406 37.835938 47.1875 36.578125 47.1875 35.496094 47.1875 34.738281 47.8125 34.390625 48.890625L34.660156 49.003906C35.070313 48.167969 35.5625 47.910156 36.289063 47.910156 37.148438 47.910156 37.679688 48.445313 37.679688 49.28125 37.679688 50.453125 37.125 51.15625 36.019531 52.296875L34.324219 53.988281 34.324219 54.371094 38.71875 54.371094 39.078125 52.585938" />
  <path d="M455.664063 757.715625L4094.453125 757.715625M455.664063 1060.957813L4094.453125 1060.957813M455.664063 1364.2L4094.453125 1364.2M455.664063 1667.403125L4094.453125 1667.403125M455.664063 1970.645313L4094.453125 1970.645313M455.664063 2273.8875L4094.453125 2273.8875" transform="matrix(.1 0 0 -.1 0 278.17)" fill="none" stroke-width="3.985" stroke-linejoin="round" stroke="#4c4c4e" stroke-miterlimit="10" />
  <path d="M60.726563 232.71875L91.050781 232.71875 91.050781 141.75 60.726563 141.75zM121.375 232.71875L151.699219 232.71875 151.699219 156.914063 121.375 156.914063zM182.019531 232.71875L212.34375 232.71875 212.34375 172.074219 182.019531 172.074219zM242.667969 232.71875L272.992188 232.71875 272.992188 81.105469 242.667969 81.105469zM303.3125 232.71875L333.636719 232.71875 333.636719 187.234375 303.3125 187.234375zM363.960938 232.71875L394.28125 232.71875 394.28125 217.558594 363.960938 217.558594zM363.960938 232.71875" fill="#62aadf" />
  <path d="M455.664063 454.5125L4094.453125 454.5125M455.664063 454.5125L455.664063 2273.8875" transform="matrix(.1 0 0 -.1 0 278.17)" fill="none" stroke-width="7.97" stroke-linejoin="round" stroke="#000" stroke-miterlimit="10" />
  <path d="M62.460938 243.066406C63.390625 242.820313 64.046875 242.375 64.046875 241.382813 64.046875 240.277344 63.300781 239.640625 61.3125 239.640625L58.300781 239.640625 58.300781 239.976563C59.203125 239.976563 59.382813 240.097656 59.382813 240.992188L59.382813 245.554688C59.382813 246.480469 59.203125 246.636719 58.300781 246.636719L58.300781 246.96875 61.738281 246.96875C63.398438 246.96875 64.40625 246.265625 64.40625 244.996094 64.40625 243.78125 63.410156 243.265625 62.460938 243.109375zM60.410156 242.929688L60.410156 240.109375C60.632813 240.085938 60.867188 240.074219 61.078125 240.074219 62.441406 240.074219 62.941406 240.601563 62.941406 241.46875 62.941406 242.484375 62.519531 242.929688 61.167969 242.929688zM60.410156 243.398438L61.191406 243.398438C62.226563 243.398438 63.234375 243.746094 63.234375 245.015625 63.234375 246.433594 62.171875 246.558594 61.214844 246.558594 60.945313 246.558594 60.679688 246.546875 60.410156 246.523438L60.410156 243.398438M68.234375 246.277344C68.304688 246.769531 68.414063 247.027344 68.90625 247.027344 69.476563 247.027344 69.742188 246.792969 70.109375 246.257813L69.945313 246.078125C69.789063 246.246094 69.632813 246.355469 69.417969 246.355469 69.183594 246.355469 69.085938 246.265625 69.085938 245.808594L69.085938 243.277344C69.085938 242.117188 68.625 241.558594 67.410156 241.558594 66.195313 241.558594 65.445313 242.164063 65.445313 242.785156 65.445313 243.15625 65.691406 243.320313 65.914063 243.320313 66.226563 243.320313 66.40625 243.15625 66.40625 242.808594 66.40625 242.140625 66.519531 241.90625 67.15625 241.90625 67.824219 241.90625 68.15625 242.273438 68.15625 243.242188L68.15625 243.734375C67.199219 244.035156 65.222656 244.328125 65.222656 245.796875 65.222656 246.511719 65.691406 247.046875 66.550781 247.046875 67.265625 247.046875 67.667969 246.734375 68.191406 246.277344zM68.15625 245.945313C67.777344 246.257813 67.375 246.433594 67.007813 246.433594 66.53125 246.433594 66.207031 246.089844 66.207031 245.53125 66.207031 244.660156 67.140625 244.359375 68.15625 244.101563L68.15625 245.945313M75.566406 243.546875C75.566406 242.261719 75.085938 241.558594 74.070313 241.558594 73.367188 241.558594 72.878906 241.960938 72.273438 242.496094L72.230469 242.496094 72.242188 241.59375 71.984375 241.59375 70.570313 241.917969 70.570313 242.242188C70.570313 242.242188 70.679688 242.21875 70.867188 242.21875 71.171875 242.21875 71.335938 242.304688 71.335938 242.710938L71.335938 245.84375C71.335938 246.46875 71.304688 246.65625 70.554688 246.65625L70.554688 246.96875 73.113281 246.96875 73.113281 246.65625C72.308594 246.65625 72.265625 246.46875 72.265625 245.84375L72.265625 242.976563C72.597656 242.675781 73.011719 242.273438 73.613281 242.273438 74.117188 242.273438 74.640625 242.484375 74.640625 243.824219L74.640625 245.84375C74.640625 246.46875 74.605469 246.65625 73.8125 246.65625L73.8125 246.96875 76.390625 246.96875 76.390625 246.65625C75.644531 246.65625 75.566406 246.46875 75.566406 245.84375L75.566406 243.546875M80.136719 246.277344C80.203125 246.769531 80.3125 247.027344 80.804688 247.027344 81.375 247.027344 81.640625 246.792969 82.011719 246.257813L81.84375 246.078125C81.6875 246.246094 81.53125 246.355469 81.320313 246.355469 81.085938 246.355469 80.984375 246.265625 80.984375 245.808594L80.984375 243.277344C80.984375 242.117188 80.527344 241.558594 79.3125 241.558594 78.09375 241.558594 77.347656 242.164063 77.347656 242.785156 77.347656 243.15625 77.59375 243.320313 77.816406 243.320313 78.128906 243.320313 78.304688 243.15625 78.304688 242.808594 78.304688 242.140625 78.417969 241.90625 79.054688 241.90625 79.722656 241.90625 80.058594 242.273438 80.058594 243.242188L80.058594 243.734375C79.097656 244.035156 77.125 244.328125 77.125 245.796875 77.125 246.511719 77.59375 247.046875 78.453125 247.046875 79.164063 247.046875 79.566406 246.734375 80.09375 246.277344zM80.058594 245.945313C79.679688 246.257813 79.277344 246.433594 78.910156 246.433594 78.429688 246.433594 78.105469 246.089844 78.105469 245.53125 78.105469 244.660156 79.042969 244.359375 80.058594 244.101563L80.058594 245.945313M87.367188 243.546875C87.367188 242.261719 86.886719 241.558594 85.871094 241.558594 85.167969 241.558594 84.679688 241.960938 84.074219 242.496094L84.03125 242.496094 84.042969 241.59375 83.785156 241.59375 82.367188 241.917969 82.367188 242.242188C82.367188 242.242188 82.480469 242.21875 82.667969 242.21875 82.96875 242.21875 83.136719 242.304688 83.136719 242.710938L83.136719 245.84375C83.136719 246.46875 83.105469 246.65625 82.355469 246.65625L82.355469 246.96875 84.914063 246.96875 84.914063 246.65625C84.109375 246.65625 84.0625 246.46875 84.0625 245.84375L84.0625 242.976563C84.398438 242.675781 84.8125 242.273438 85.414063 242.273438 85.914063 242.273438 86.441406 242.484375 86.441406 243.824219L86.441406 245.84375C86.441406 246.46875 86.40625 246.65625 85.613281 246.65625L85.613281 246.96875 88.191406 246.96875 88.191406 246.65625C87.445313 246.65625 87.367188 246.46875 87.367188 245.84375L87.367188 243.546875M91.9375 246.277344C92.003906 246.769531 92.113281 247.027344 92.605469 247.027344 93.175781 247.027344 93.441406 246.792969 93.8125 246.257813L93.644531 246.078125C93.488281 246.246094 93.332031 246.355469 93.117188 246.355469 92.882813 246.355469 92.785156 246.265625 92.785156 245.808594L92.785156 243.277344C92.785156 242.117188 92.328125 241.558594 91.109375 241.558594 89.894531 241.558594 89.148438 242.164063 89.148438 242.785156 89.148438 243.15625 89.390625 243.320313 89.617188 243.320313 89.929688 243.320313 90.105469 243.15625 90.105469 242.808594 90.105469 242.140625 90.21875 241.90625 90.855469 241.90625 91.523438 241.90625 91.859375 242.273438 91.859375 243.242188L91.859375 243.734375C90.898438 244.035156 88.921875 244.328125 88.921875 245.796875 88.921875 246.511719 89.390625 247.046875 90.25 247.046875 90.964844 247.046875 91.367188 246.734375 91.890625 246.277344zM91.859375 245.945313C91.476563 246.257813 91.078125 246.433594 90.710938 246.433594 90.230469 246.433594 89.90625 246.089844 89.90625 245.53125 89.90625 244.660156 90.84375 244.359375 91.859375 244.101563L91.859375 245.945313M130.265625 246.070313L130.265625 245.734375C129.664063 245.734375 129.441406 245.480469 129.117188 244.742188L126.472656 238.683594 126.015625 238.683594 123.648438 244.285156C123.113281 245.558594 122.957031 245.734375 122.332031 245.734375L122.332031 246.070313 124.675781 246.070313 124.675781 245.734375C124.152344 245.734375 123.929688 245.667969 123.929688 245.355469 123.929688 245.15625 123.984375 244.988281 124.050781 244.808594L124.554688 243.625 127.410156 243.625 127.84375 244.632813C127.988281 244.964844 128.035156 245.167969 128.035156 245.324219 128.035156 245.714844 127.601563 245.734375 127.265625 245.734375L127.265625 246.070313zM127.242188 243.179688L124.71875 243.179688 125.980469 240.058594 126.015625 240.058594 127.242188 243.179688M132.363281 240.691406L132.085938 240.691406 130.679688 241.003906 130.679688 241.328125C130.679688 241.328125 130.890625 241.304688 131.035156 241.304688 131.40625 241.304688 131.460938 241.453125 131.460938 241.875L131.460938 247.398438C131.460938 248.023438 131.347656 248.210938 130.644531 248.210938L130.644531 248.523438 133.46875 248.523438 133.46875 248.203125C132.597656 248.203125 132.386719 248.054688 132.386719 247.332031L132.386719 245.867188 132.429688 245.867188C132.753906 246.09375 133.132813 246.179688 133.558594 246.179688 134.894531 246.179688 136 245.054688 136 243.15625 136 241.695313 135.230469 240.660156 134.128906 240.660156 133.46875 240.660156 132.933594 241.003906 132.398438 241.628906L132.363281 241.628906zM132.386719 242.097656C132.597656 241.820313 133.078125 241.417969 133.667969 241.417969 134.492188 241.417969 134.984375 242.066406 134.984375 243.46875 134.984375 245.023438 134.394531 245.746094 133.613281 245.746094 132.988281 245.746094 132.597656 245.246094 132.386719 245.011719L132.386719 242.097656M138.363281 240.691406L138.085938 240.691406 136.679688 241.003906 136.679688 241.328125C136.679688 241.328125 136.890625 241.304688 137.035156 241.304688 137.40625 241.304688 137.460938 241.453125 137.460938 241.875L137.460938 247.398438C137.460938 248.023438 137.347656 248.210938 136.644531 248.210938L136.644531 248.523438 139.46875 248.523438 139.46875 248.203125C138.597656 248.203125 138.386719 248.054688 138.386719 247.332031L138.386719 245.867188 138.429688 245.867188C138.753906 246.09375 139.132813 246.179688 139.558594 246.179688 140.894531 246.179688 142 245.054688 142 243.15625 142 241.695313 141.230469 240.660156 140.128906 240.660156 139.46875 240.660156 138.933594 241.003906 138.398438 241.628906L138.363281 241.628906zM138.386719 242.097656C138.597656 241.820313 139.078125 241.417969 139.667969 241.417969 140.492188 241.417969 140.984375 242.066406 140.984375 243.46875 140.984375 245.023438 140.394531 245.746094 139.613281 245.746094 138.988281 245.746094 138.597656 245.246094 138.386719 245.011719L138.386719 242.097656M145.300781 245.746094C144.496094 245.746094 144.441406 245.589844 144.441406 244.945313L144.441406 238.195313 144.164063 238.195313 142.691406 238.585938 142.691406 238.886719C142.691406 238.886719 142.859375 238.863281 143.046875 238.863281 143.328125 238.863281 143.515625 238.886719 143.515625 239.34375L143.515625 244.945313C143.515625 245.570313 143.46875 245.746094 142.734375 245.746094L142.734375 246.070313 145.300781 246.070313 145.300781 245.746094M150.230469 244.476563C149.871094 244.945313 149.527344 245.34375 148.621094 245.34375 147.730469 245.34375 146.882813 244.640625 146.882813 243.101563L150.40625 243.101563C150.351563 241.539063 149.550781 240.660156 148.332031 240.660156 147.027344 240.660156 145.980469 241.550781 145.980469 243.414063 145.980469 245.210938 147.015625 246.179688 148.355469 246.179688 149.503906 246.179688 150.039063 245.480469 150.441406 244.632813zM146.871094 242.691406C146.960938 241.652344 147.40625 241.105469 148.164063 241.105469 148.957031 241.105469 149.328125 241.863281 149.359375 242.691406L146.871094 242.691406M187.363281 242C187.363281 239.789063 186.039063 238.304688 183.816406 238.304688 181.609375 238.304688 180.257813 239.835938 180.257813 242.101563 180.257813 244.464844 181.597656 245.90625 183.816406 245.90625 186.015625 245.90625 187.363281 244.332031 187.363281 242zM186.195313 242.03125C186.195313 244.273438 185.414063 245.4375 183.828125 245.4375 182.222656 245.4375 181.429688 244.128906 181.429688 242.03125 181.429688 239.992188 182.34375 238.773438 183.78125 238.773438 185.234375 238.773438 186.195313 240.023438 186.195313 242.03125M190.042969 240.390625L189.773438 240.390625 188.390625 240.726563 188.390625 241.039063C188.390625 241.039063 188.511719 241.015625 188.734375 241.015625 189.136719 241.015625 189.136719 241.21875 189.136719 241.621094L189.136719 244.6875C189.136719 245.3125 189.058594 245.445313 188.324219 245.445313L188.324219 245.769531 191.113281 245.769531 191.113281 245.445313C190.277344 245.445313 190.0625 245.335938 190.0625 244.632813L190.0625 242.089844C190.332031 241.640625 190.6875 241.171875 190.945313 241.171875 191.078125 241.171875 191.300781 241.554688 191.671875 241.554688 191.914063 241.554688 192.160156 241.375 192.160156 240.953125 192.160156 240.570313 191.949219 240.328125 191.515625 240.328125 190.976563 240.328125 190.644531 240.71875 190.074219 241.542969L190.042969 241.542969 190.042969 240.390625M195.535156 245.078125C195.601563 245.570313 195.714844 245.828125 196.207031 245.828125 196.773438 245.828125 197.042969 245.59375 197.410156 245.054688L197.242188 244.878906C197.089844 245.046875 196.929688 245.15625 196.71875 245.15625 196.484375 245.15625 196.382813 245.066406 196.382813 244.609375L196.382813 242.078125C196.382813 240.917969 195.925781 240.359375 194.710938 240.359375 193.496094 240.359375 192.746094 240.960938 192.746094 241.585938 192.746094 241.953125 192.992188 242.121094 193.214844 242.121094 193.527344 242.121094 193.707031 241.953125 193.707031 241.609375 193.707031 240.9375 193.820313 240.703125 194.453125 240.703125 195.121094 240.703125 195.457031 241.074219 195.457031 242.042969L195.457031 242.535156C194.496094 242.835938 192.523438 243.125 192.523438 244.597656 192.523438 245.3125 192.992188 245.847656 193.851563 245.847656 194.566406 245.847656 194.96875 245.535156 195.492188 245.078125zM195.457031 244.742188C195.078125 245.054688 194.675781 245.234375 194.308594 245.234375 193.828125 245.234375 193.507813 244.890625 193.507813 244.332031 193.507813 243.460938 194.441406 243.160156 195.457031 242.902344L195.457031 244.742188M202.867188 242.34375C202.867188 241.0625 202.386719 240.359375 201.371094 240.359375 200.667969 240.359375 200.179688 240.761719 199.574219 241.296875L199.53125 241.296875 199.542969 240.390625 199.285156 240.390625 197.867188 240.71875 197.867188 241.039063C197.867188 241.039063 197.980469 241.015625 198.167969 241.015625 198.46875 241.015625 198.636719 241.105469 198.636719 241.507813L198.636719 244.644531C198.636719 245.269531 198.605469 245.457031 197.855469 245.457031L197.855469 245.769531 200.414063 245.769531 200.414063 245.457031C199.609375 245.457031 199.5625 245.269531 199.5625 244.644531L199.5625 241.777344C199.898438 241.476563 200.3125 241.074219 200.914063 241.074219 201.414063 241.074219 201.941406 241.285156 201.941406 242.625L201.941406 244.644531C201.941406 245.269531 201.90625 245.457031 201.113281 245.457031L201.113281 245.769531 203.691406 245.769531 203.691406 245.457031C202.945313 245.457031 202.867188 245.269531 202.867188 244.644531L202.867188 242.34375M205.328125 243.71875C204.804688 244.117188 204.414063 244.585938 204.414063 244.988281 204.414063 245.300781 204.660156 245.601563 205.039063 245.792969L205.039063 245.835938C204.4375 246.417969 204.132813 246.796875 204.132813 247.164063 204.132813 247.777344 204.570313 248.390625 206.03125 248.390625 207.4375 248.390625 209.089844 247.878906 209.089844 246.382813 209.089844 245.101563 208.015625 245.054688 206.609375 245.054688 205.585938 245.054688 205.296875 244.945313 205.296875 244.609375 205.296875 244.421875 205.472656 244.019531 205.585938 243.863281 205.875 243.960938 206.1875 244.03125 206.542969 244.03125 207.714844 244.03125 208.519531 243.371094 208.519531 242.335938 208.519531 241.777344 208.273438 241.40625 208.117188 241.183594L208.117188 241.128906 209.164063 241.164063 209.164063 240.5625 207.726563 240.640625C207.726563 240.640625 207.226563 240.359375 206.488281 240.359375 205.304688 240.359375 204.46875 241.0625 204.46875 242.179688 204.46875 242.902344 204.792969 243.382813 205.328125 243.695313zM206.410156 240.761719C207.121094 240.761719 207.527344 241.363281 207.527344 242.265625 207.527344 243.328125 207.113281 243.640625 206.554688 243.640625 205.828125 243.640625 205.449219 243.09375 205.449219 242.132813 205.449219 241.195313 205.828125 240.761719 206.410156 240.761719zM205.316406 245.882813C205.472656 245.882813 205.683594 245.894531 206.578125 245.90625 207.324219 245.914063 208.519531 245.894531 208.519531 246.695313 208.519531 247.175781 207.992188 247.757813 206.679688 247.757813 205.539063 247.757813 205.003906 247.433594 205.003906 246.785156 205.003906 246.550781 205.082031 246.296875 205.316406 245.882813M214.03125 244.175781C213.671875 244.644531 213.328125 245.046875 212.421875 245.046875 211.53125 245.046875 210.683594 244.34375 210.683594 242.804688L214.207031 242.804688C214.152344 241.242188 213.351563 240.359375 212.132813 240.359375 210.828125 240.359375 209.78125 241.25 209.78125 243.117188 209.78125 244.910156 210.816406 245.882813 212.15625 245.882813 213.304688 245.882813 213.839844 245.179688 214.242188 244.332031zM210.671875 242.390625C210.761719 241.351563 211.207031 240.804688 211.964844 240.804688 212.757813 240.804688 213.128906 241.5625 213.160156 242.390625L210.671875 242.390625M236.910156 240.859375L236.832031 238.628906 236.539063 238.628906C236.484375 238.863281 236.371094 238.953125 236.195313 238.953125 235.925781 238.953125 235.679688 238.605469 234.664063 238.605469 233.507813 238.617188 232.546875 239.242188 232.546875 240.414063 232.546875 241.585938 233.449219 242.121094 234.34375 242.632813 235.257813 243.15625 236.195313 243.546875 236.195313 244.53125 236.195313 245.378906 235.671875 245.714844 234.835938 245.714844 233.695313 245.726563 233.128906 245.367188 232.734375 243.828125L232.390625 243.828125 232.492188 246.238281 232.839844 246.238281C232.847656 246.015625 232.980469 245.867188 233.136719 245.867188 233.394531 245.867188 233.828125 246.203125 234.992188 246.203125 236.285156 246.203125 237.253906 245.5 237.253906 244.207031 237.253906 242.878906 236.148438 242.378906 235.15625 241.820313 234.320313 241.339844 233.515625 240.9375 233.515625 240.101563 233.515625 239.410156 233.953125 239.054688 234.710938 239.054688 235.839844 239.042969 236.261719 239.632813 236.574219 240.859375L236.910156 240.859375M240.867188 245.066406C240.589844 245.378906 240.445313 245.523438 240.089844 245.523438 239.652344 245.523438 239.554688 245.257813 239.554688 244.464844L239.554688 241.261719 240.8125 241.261719 240.8125 240.792969 239.554688 240.792969 239.5625 239.265625 239.273438 239.265625C238.871094 240.210938 238.539063 240.679688 238.011719 241.003906L238.011719 241.261719 238.628906 241.261719 238.628906 244.777344C238.628906 245.78125 238.949219 246.179688 239.695313 246.179688 240.410156 246.179688 240.644531 245.847656 241.082031 245.246094L240.867188 245.066406M243.140625 240.691406L242.871094 240.691406 241.492188 241.027344 241.492188 241.339844C241.492188 241.339844 241.613281 241.316406 241.835938 241.316406 242.238281 241.316406 242.238281 241.519531 242.238281 241.921875L242.238281 244.988281C242.238281 245.613281 242.160156 245.746094 241.421875 245.746094L241.421875 246.070313 244.214844 246.070313 244.214844 245.746094C243.378906 245.746094 243.164063 245.636719 243.164063 244.933594L243.164063 242.390625C243.429688 241.941406 243.789063 241.472656 244.046875 241.472656 244.179688 241.472656 244.402344 241.851563 244.769531 241.851563 245.015625 241.851563 245.261719 241.675781 245.261719 241.25 245.261719 240.871094 245.050781 240.625 244.613281 240.625 244.078125 240.625 243.742188 241.015625 243.175781 241.84375L243.140625 241.84375 243.140625 240.691406M248.636719 245.378906C248.703125 245.867188 248.8125 246.125 249.304688 246.125 249.875 246.125 250.140625 245.890625 250.511719 245.355469L250.34375 245.179688C250.1875 245.34375 250.03125 245.457031 249.820313 245.457031 249.585938 245.457031 249.484375 245.367188 249.484375 244.910156L249.484375 242.378906C249.484375 241.21875 249.027344 240.660156 247.8125 240.660156 246.59375 240.660156 245.847656 241.261719 245.847656 241.886719 245.847656 242.253906 246.09375 242.421875 246.316406 242.421875 246.628906 242.421875 246.804688 242.253906 246.804688 241.910156 246.804688 241.238281 246.917969 241.003906 247.554688 241.003906 248.222656 241.003906 248.558594 241.375 248.558594 242.34375L248.558594 242.835938C247.597656 243.136719 245.621094 243.425781 245.621094 244.898438 245.621094 245.613281 246.09375 246.148438 246.953125 246.148438 247.664063 246.148438 248.066406 245.835938 248.59375 245.378906zM248.558594 245.042969C248.179688 245.355469 247.777344 245.535156 247.410156 245.535156 246.929688 245.535156 246.605469 245.1875 246.605469 244.632813 246.605469 243.761719 247.542969 243.460938 248.558594 243.203125L248.558594 245.042969M258.800781 240.792969L256.871094 240.792969 256.871094 241.117188C257.285156 241.117188 257.496094 241.183594 257.496094 241.394531 257.496094 241.585938 257.441406 241.742188 257.429688 241.796875L256.546875 244.296875 256.324219 244.945313 256.257813 244.945313 256.054688 244.296875 255.152344 241.851563C255.097656 241.6875 255.054688 241.53125 255.054688 241.394531 255.054688 241.21875 255.1875 241.117188 255.609375 241.117188L255.609375 240.792969 253.277344 240.792969 253.277344 241.117188C253.769531 241.117188 253.9375 241.207031 254.203125 241.929688L254.328125 242.265625 253.523438 244.296875 253.289063 244.945313 253.214844 244.945313 253.011719 244.296875 252.039063 241.832031C251.972656 241.664063 251.917969 241.539063 251.917969 241.394531 251.917969 241.21875 252.0625 241.117188 252.507813 241.117188L252.507813 240.792969 250.109375 240.792969 250.109375 241.117188C250.601563 241.117188 250.769531 241.238281 251.058594 241.929688L252.734375 246.136719 253.246094 246.136719 254.550781 242.890625 254.59375 242.890625 255.777344 246.136719 256.3125 246.136719 257.976563 241.851563C258.199219 241.273438 258.367188 241.117188 258.800781 241.117188L258.800781 240.792969M260.519531 238.195313L260.226563 238.195313 258.789063 238.585938 258.789063 238.898438C258.789063 238.898438 258.921875 238.875 259.101563 238.875 259.523438 238.875 259.59375 238.964844 259.59375 239.464844L259.59375 245.734375C259.859375 245.882813 260.507813 246.179688 261.457031 246.179688 263.007813 246.179688 264.132813 245.132813 264.132813 243.136719 264.132813 241.6875 263.375 240.660156 262.269531 240.660156 261.523438 240.660156 260.941406 241.140625 260.550781 241.609375L260.519531 241.609375zM260.519531 242.097656C260.71875 241.832031 261.210938 241.417969 261.78125 241.417969 262.839844 241.417969 263.117188 242.421875 263.117188 243.492188 263.117188 244.730469 262.714844 245.726563 261.65625 245.726563 261.066406 245.726563 260.730469 245.457031 260.519531 245.199219L260.519531 242.097656M269.230469 244.476563C268.871094 244.945313 268.527344 245.34375 267.621094 245.34375 266.730469 245.34375 265.882813 244.640625 265.882813 243.101563L269.40625 243.101563C269.351563 241.539063 268.550781 240.660156 267.332031 240.660156 266.027344 240.660156 264.980469 241.550781 264.980469 243.414063 264.980469 245.210938 266.015625 246.179688 267.355469 246.179688 268.503906 246.179688 269.039063 245.480469 269.441406 244.632813zM265.871094 242.691406C265.960938 241.652344 266.40625 241.105469 267.164063 241.105469 267.957031 241.105469 268.328125 241.863281 268.359375 242.691406L265.871094 242.691406M271.84375 240.691406L271.574219 240.691406 270.191406 241.027344 270.191406 241.339844C270.191406 241.339844 270.3125 241.316406 270.535156 241.316406 270.9375 241.316406 270.9375 241.519531 270.9375 241.921875L270.9375 244.988281C270.9375 245.613281 270.859375 245.746094 270.121094 245.746094L270.121094 246.070313 272.914063 246.070313 272.914063 245.746094C272.078125 245.746094 271.863281 245.636719 271.863281 244.933594L271.863281 242.390625C272.132813 241.941406 272.488281 241.472656 272.746094 241.472656 272.878906 241.472656 273.101563 241.851563 273.46875 241.851563 273.714844 241.851563 273.960938 241.675781 273.960938 241.25 273.960938 240.871094 273.75 240.625 273.3125 240.625 272.777344 240.625 272.445313 241.015625 271.875 241.84375L271.84375 241.84375 271.84375 240.691406M276.042969 240.691406L275.773438 240.691406 274.390625 241.027344 274.390625 241.339844C274.390625 241.339844 274.511719 241.316406 274.734375 241.316406 275.136719 241.316406 275.136719 241.519531 275.136719 241.921875L275.136719 244.988281C275.136719 245.613281 275.058594 245.746094 274.324219 245.746094L274.324219 246.070313 277.113281 246.070313 277.113281 245.746094C276.277344 245.746094 276.0625 245.636719 276.0625 244.933594L276.0625 242.390625C276.332031 241.941406 276.6875 241.472656 276.945313 241.472656 277.078125 241.472656 277.300781 241.851563 277.671875 241.851563 277.914063 241.851563 278.160156 241.675781 278.160156 241.25 278.160156 240.871094 277.949219 240.625 277.515625 240.625 276.976563 240.625 276.644531 241.015625 276.074219 241.84375L276.042969 241.84375 276.042969 240.691406M283.800781 240.792969L281.902344 240.792969 281.902344 241.117188C282.273438 241.117188 282.527344 241.171875 282.527344 241.394531 282.527344 241.484375 282.496094 241.585938 282.472656 241.675781L281.402344 244.945313 281.324219 244.945313 281.167969 244.363281 280.074219 241.910156C280.007813 241.753906 279.917969 241.5625 279.917969 241.429688 279.917969 241.226563 280.050781 241.128906 280.554688 241.128906L280.554688 240.792969 278.164063 240.792969 278.164063 241.117188C278.566406 241.117188 278.722656 241.261719 278.835938 241.519531L280.476563 245.101563C280.609375 245.402344 280.8125 245.867188 280.8125 246.015625 280.8125 246.335938 280.175781 247.722656 279.816406 247.722656 279.539063 247.722656 279.304688 247.476563 278.914063 247.476563 278.613281 247.476563 278.390625 247.621094 278.390625 247.957031 278.390625 248.378906 278.714844 248.535156 279.214844 248.535156 280.117188 248.535156 280.664063 247.957031 281.289063 246.316406L283.03125 241.742188C283.1875 241.304688 283.351563 241.117188 283.800781 241.117188L283.800781 240.792969M308.585938 245.710938C308.585938 246.691406 308.496094 246.835938 307.480469 246.835938L307.480469 247.171875 310.691406 247.171875 310.691406 246.835938C309.710938 246.835938 309.597656 246.644531 309.597656 245.710938L309.597656 243.699219 309.699219 243.699219 310.679688 244.683594C311.808594 245.789063 312.296875 246.242188 312.296875 246.613281 312.296875 246.78125 312.175781 246.835938 311.863281 246.835938L311.640625 246.835938 311.640625 247.171875 314.863281 247.171875 314.863281 246.835938C314.320313 246.835938 314.074219 246.703125 313.703125 246.355469L310.503906 243.210938 312.921875 240.945313C313.527344 240.386719 313.746094 240.210938 314.382813 240.175781L314.382813 239.839844 311.652344 239.839844 311.652344 240.175781 311.828125 240.175781C312.140625 240.175781 312.253906 240.289063 312.253906 240.523438 312.253906 240.855469 311.976563 241.15625 311.464844 241.648438L309.65625 243.410156 309.597656 243.410156 309.597656 241.3125C309.597656 240.445313 309.632813 240.175781 310.691406 240.175781L310.691406 239.839844 307.480469 239.839844 307.480469 240.175781C308.539063 240.175781 308.585938 240.445313 308.585938 241.3125L308.585938 245.710938M316.617188 239.4375C316.226563 239.4375 315.980469 239.730469 315.980469 240.0625 315.980469 240.410156 316.238281 240.699219 316.617188 240.699219 317.007813 240.699219 317.253906 240.410156 317.253906 240.0625 317.253906 239.730469 317.007813 239.4375 316.617188 239.4375zM317.867188 246.859375C317.121094 246.859375 317.0625 246.691406 317.0625 246.042969L317.0625 241.792969 316.773438 241.792969 315.367188 242.105469 315.367188 242.429688C315.367188 242.429688 315.492188 242.40625 315.648438 242.40625 315.96875 242.40625 316.136719 242.453125 316.136719 242.929688L316.136719 246.042969C316.136719 246.679688 316.105469 246.859375 315.355469 246.859375L315.355469 247.171875 317.867188 247.171875 317.867188 246.859375M326.703125 241.894531L324.769531 241.894531 324.769531 242.21875C325.183594 242.21875 325.394531 242.285156 325.394531 242.496094 325.394531 242.6875 325.339844 242.84375 325.328125 242.898438L324.445313 245.398438 324.226563 246.042969 324.15625 246.042969 323.957031 245.398438 323.054688 242.953125C322.996094 242.785156 322.953125 242.628906 322.953125 242.496094 322.953125 242.316406 323.085938 242.21875 323.511719 242.21875L323.511719 241.894531 321.179688 241.894531 321.179688 242.21875C321.671875 242.21875 321.839844 242.304688 322.105469 243.03125L322.226563 243.367188 321.421875 245.398438 321.191406 246.042969 321.113281 246.042969 320.910156 245.398438 319.941406 242.929688C319.871094 242.765625 319.816406 242.640625 319.816406 242.496094 319.816406 242.316406 319.964844 242.21875 320.410156 242.21875L320.410156 241.894531 318.011719 241.894531 318.011719 242.21875C318.503906 242.21875 318.667969 242.339844 318.960938 243.03125L320.632813 247.238281 321.144531 247.238281 322.449219 243.992188 322.496094 243.992188 323.679688 247.238281 324.214844 247.238281 325.875 242.953125C326.097656 242.375 326.265625 242.21875 326.703125 242.21875L326.703125 241.894531M328.21875 239.4375C327.828125 239.4375 327.582031 239.730469 327.582031 240.0625 327.582031 240.410156 327.839844 240.699219 328.21875 240.699219 328.609375 240.699219 328.851563 240.410156 328.851563 240.0625 328.851563 239.730469 328.609375 239.4375 328.21875 239.4375zM329.46875 246.859375C328.71875 246.859375 328.664063 246.691406 328.664063 246.042969L328.664063 241.792969 328.371094 241.792969 326.96875 242.105469 326.96875 242.429688C326.96875 242.429688 327.089844 242.40625 327.246094 242.40625 327.570313 242.40625 327.738281 242.453125 327.738281 242.929688L327.738281 246.042969C327.738281 246.679688 327.703125 246.859375 326.957031 246.859375L326.957031 247.171875 329.46875 247.171875 329.46875 246.859375M370.140625 242.414063L367.386719 242.414063 367.386719 242.769531C368.234375 242.769531 368.367188 242.925781 368.367188 243.726563L368.367188 244.933594C367.921875 245.265625 367.476563 245.492188 366.785156 245.492188 365.1875 245.492188 364.21875 244.375 364.21875 242.101563 364.21875 240.125 365.132813 238.886719 366.707031 238.886719 367.890625 238.886719 368.667969 239.476563 368.925781 240.960938L369.304688 240.960938 369.304688 238.40625 368.980469 238.40625C368.839844 238.652344 368.769531 238.808594 368.578125 238.808594 368.300781 238.808594 367.921875 238.40625 366.695313 238.40625 364.597656 238.40625 363.058594 239.757813 363.058594 242.234375 363.058594 244.621094 364.261719 245.992188 366.628906 245.992188 367.855469 245.992188 368.578125 245.703125 369.382813 245.234375L369.382813 243.617188C369.382813 242.925781 369.515625 242.769531 370.140625 242.769531L370.140625 242.414063M372.640625 240.492188L372.371094 240.492188 370.992188 240.828125 370.992188 241.140625C370.992188 241.140625 371.113281 241.117188 371.335938 241.117188 371.738281 241.117188 371.738281 241.320313 371.738281 241.71875L371.738281 244.789063C371.738281 245.414063 371.660156 245.546875 370.921875 245.546875L370.921875 245.871094 373.714844 245.871094 373.714844 245.546875C372.878906 245.546875 372.664063 245.4375 372.664063 244.734375L372.664063 242.1875C372.929688 241.742188 373.289063 241.273438 373.546875 241.273438 373.679688 241.273438 373.902344 241.652344 374.269531 241.652344 374.515625 241.652344 374.761719 241.476563 374.761719 241.050781 374.761719 240.671875 374.550781 240.425781 374.113281 240.425781 373.578125 240.425781 373.242188 240.816406 372.675781 241.640625L372.640625 241.640625 372.640625 240.492188M378.136719 245.179688C378.203125 245.667969 378.3125 245.925781 378.804688 245.925781 379.375 245.925781 379.640625 245.691406 380.011719 245.15625L379.84375 244.976563C379.6875 245.144531 379.53125 245.257813 379.320313 245.257813 379.085938 245.257813 378.984375 245.167969 378.984375 244.710938L378.984375 242.179688C378.984375 241.015625 378.527344 240.460938 377.3125 240.460938 376.09375 240.460938 375.347656 241.0625 375.347656 241.6875 375.347656 242.054688 375.59375 242.222656 375.816406 242.222656 376.128906 242.222656 376.304688 242.054688 376.304688 241.710938 376.304688 241.039063 376.417969 240.804688 377.054688 240.804688 377.722656 240.804688 378.058594 241.171875 378.058594 242.144531L378.058594 242.632813C377.097656 242.9375 375.121094 243.226563 375.121094 244.699219 375.121094 245.414063 375.59375 245.949219 376.453125 245.949219 377.164063 245.949219 377.566406 245.636719 378.09375 245.179688zM378.058594 244.84375C377.679688 245.15625 377.277344 245.335938 376.910156 245.335938 376.429688 245.335938 376.105469 244.988281 376.105469 244.429688 376.105469 243.5625 377.042969 243.257813 378.058594 243.003906L378.058594 244.84375M382.0625 240.492188L381.785156 240.492188 380.378906 240.804688 380.378906 241.128906C380.378906 241.128906 380.589844 241.105469 380.734375 241.105469 381.105469 241.105469 381.160156 241.25 381.160156 241.675781L381.160156 247.199219C381.160156 247.824219 381.046875 248.011719 380.34375 248.011719L380.34375 248.324219 383.167969 248.324219 383.167969 248C382.296875 248 382.085938 247.855469 382.085938 247.132813L382.085938 245.667969 382.128906 245.667969C382.453125 245.890625 382.832031 245.980469 383.257813 245.980469 384.59375 245.980469 385.699219 244.855469 385.699219 242.957031 385.699219 241.496094 384.929688 240.460938 383.828125 240.460938 383.167969 240.460938 382.632813 240.804688 382.097656 241.429688L382.0625 241.429688zM382.085938 241.898438C382.296875 241.621094 382.777344 241.21875 383.367188 241.21875 384.195313 241.21875 384.6875 241.867188 384.6875 243.269531 384.6875 244.820313 384.09375 245.546875 383.3125 245.546875 382.6875 245.546875 382.296875 245.046875 382.085938 244.8125L382.085938 241.898438M390.730469 244.273438C390.371094 244.742188 390.027344 245.144531 389.121094 245.144531 388.230469 245.144531 387.382813 244.441406 387.382813 242.902344L390.90625 242.902344C390.851563 241.339844 390.050781 240.460938 388.832031 240.460938 387.527344 240.460938 386.480469 241.351563 386.480469 243.214844 386.480469 245.011719 387.515625 245.980469 388.855469 245.980469 390.003906 245.980469 390.539063 245.28125 390.941406 244.429688zM387.371094 242.492188C387.460938 241.453125 387.90625 240.90625 388.664063 240.90625 389.457031 240.90625 389.828125 241.664063 389.859375 242.492188L387.371094 242.492188M391.734375 244.039063L391.769531 245.960938 392.003906 245.960938 392.238281 245.703125 392.257813 245.703125C392.550781 245.824219 392.882813 245.992188 393.53125 245.992188 394.535156 245.992188 395.40625 245.589844 395.40625 244.542969 395.40625 243.71875 394.859375 243.304688 393.84375 242.769531 392.90625 242.289063 392.539063 242.011719 392.539063 241.574219 392.539063 241.074219 392.929688 240.839844 393.441406 240.839844 394.121094 240.839844 394.535156 241.164063 394.78125 242.222656L395.082031 242.222656 395.046875 240.515625 394.824219 240.515625 394.636719 240.75 394.625 240.75C394.34375 240.617188 394.011719 240.460938 393.453125 240.460938 392.492188 240.460938 391.746094 240.949219 391.746094 241.867188 391.746094 242.691406 392.203125 243.082031 393.21875 243.59375 394.257813 244.109375 394.46875 244.320313 394.46875 244.84375 394.46875 245.367188 394.066406 245.578125 393.507813 245.578125 392.683594 245.578125 392.257813 245.1875 392.023438 244.039063L391.734375 244.039063M222.003906 256.871094L221.9375 255.039063 216.003906 255.039063 216.003906 255.375C216.804688 255.375 217.085938 255.53125 217.085938 256.300781L217.085938 261.078125C217.085938 261.902344 216.90625 262.035156 216.003906 262.035156L216.003906 262.371094 219.269531 262.371094 219.269531 262.035156C218.398438 262.035156 218.109375 261.902344 218.109375 261.144531L218.109375 258.800781 219.425781 258.800781C220.386719 258.800781 220.609375 258.945313 220.609375 259.847656L220.988281 259.847656 220.988281 257.261719 220.609375 257.261719C220.609375 258.164063 220.386719 258.367188 219.425781 258.367188L218.109375 258.367188 218.109375 255.542969 219.882813 255.542969C221.34375 255.542969 221.445313 255.8125 221.648438 256.871094L222.003906 256.871094M224.042969 256.992188L223.773438 256.992188 222.390625 257.328125 222.390625 257.640625C222.390625 257.640625 222.511719 257.617188 222.734375 257.617188 223.136719 257.617188 223.136719 257.820313 223.136719 258.21875L223.136719 261.289063C223.136719 261.914063 223.058594 262.046875 222.324219 262.046875L222.324219 262.371094 225.113281 262.371094 225.113281 262.046875C224.277344 262.046875 224.0625 261.9375 224.0625 261.234375L224.0625 258.6875C224.332031 258.242188 224.6875 257.773438 224.945313 257.773438 225.078125 257.773438 225.300781 258.152344 225.671875 258.152344 225.914063 258.152344 226.160156 257.976563 226.160156 257.550781 226.160156 257.171875 225.949219 256.925781 225.515625 256.925781 224.976563 256.925781 224.644531 257.316406 224.074219 258.140625L224.042969 258.140625 224.042969 256.992188M232.324219 261.867188L232.214844 261.867188C231.679688 261.867188 231.542969 261.789063 231.542969 261.132813L231.542969 257.039063 231.273438 257.039063 229.714844 257.203125 229.714844 257.515625C230.429688 257.515625 230.617188 257.574219 230.617188 258.164063L230.617188 261.097656C230.171875 261.488281 229.8125 261.765625 229.246094 261.765625 228.664063 261.765625 228.242188 261.433594 228.242188 260.296875L228.242188 257.039063 227.996094 257.039063 226.554688 257.203125 226.554688 257.515625C227.160156 257.527344 227.316406 257.574219 227.316406 258.175781L227.316406 260.441406C227.316406 261.957031 227.851563 262.480469 228.777344 262.480469 229.492188 262.480469 230.015625 262.148438 230.605469 261.566406L230.664063 261.566406 230.664063 262.425781 230.90625 262.425781 232.324219 262.167969 232.324219 261.867188M234.316406 254.640625C233.925781 254.640625 233.679688 254.929688 233.679688 255.265625 233.679688 255.609375 233.9375 255.898438 234.316406 255.898438 234.707031 255.898438 234.953125 255.609375 234.953125 255.265625 234.953125 254.929688 234.707031 254.640625 234.316406 254.640625zM235.566406 262.058594C234.820313 262.058594 234.765625 261.890625 234.765625 261.242188L234.765625 256.992188 234.472656 256.992188 233.070313 257.304688 233.070313 257.628906C233.070313 257.628906 233.191406 257.605469 233.347656 257.605469 233.671875 257.605469 233.839844 257.652344 233.839844 258.132813L233.839844 261.242188C233.839844 261.878906 233.804688 262.058594 233.054688 262.058594L233.054688 262.371094 235.566406 262.371094 235.566406 262.058594M239.167969 261.367188C238.890625 261.679688 238.746094 261.824219 238.386719 261.824219 237.953125 261.824219 237.851563 261.554688 237.851563 260.765625L237.851563 257.5625 239.113281 257.5625 239.113281 257.09375 237.851563 257.09375 237.863281 255.566406 237.574219 255.566406C237.171875 256.511719 236.839844 256.980469 236.3125 257.304688L236.3125 257.5625 236.925781 257.5625 236.925781 261.078125C236.925781 262.078125 237.25 262.480469 237.996094 262.480469 238.710938 262.480469 238.945313 262.148438 239.382813 261.546875L239.167969 261.367188M16.371094 181.09375L16.371094 183.726563 16.703125 183.726563C16.703125 183.257813 16.773438 183.058594 16.984375 182.878906 17.171875 182.710938 17.476563 182.667969 18.144531 182.667969L21.757813 182.667969 21.757813 182.722656 16.371094 186.851563 16.371094 188.746094 16.703125 188.746094C16.703125 188.246094 16.816406 188.054688 17.273438 187.699219L22.039063 187.699219C23.164063 187.699219 23.367188 187.867188 23.367188 188.746094L23.699219 188.746094 23.699219 186.136719 23.367188 186.136719C23.367188 186.972656 23.152344 187.152344 22.039063 187.152344L17.820313 187.152344 17.820313 187.09375 23.789063 182.476563 23.789063 182.109375 18.199219 182.109375C17.398438 182.109375 17.085938 181.996094 16.929688 181.820313 16.773438 181.652344 16.703125 181.496094 16.703125 181.09375L16.371094 181.09375M23.199219 174.746094L23.199219 174.855469C23.199219 175.390625 23.121094 175.527344 22.460938 175.527344L18.367188 175.527344 18.367188 175.796875 18.535156 177.355469 18.847656 177.355469C18.847656 176.640625 18.902344 176.453125 19.492188 176.453125L22.429688 176.453125C22.820313 176.898438 23.097656 177.257813 23.097656 177.824219 23.097656 178.40625 22.761719 178.828125 21.625 178.828125L18.367188 178.828125 18.367188 179.074219 18.535156 180.515625 18.847656 180.515625C18.859375 179.910156 18.902344 179.753906 19.503906 179.753906L21.769531 179.753906C23.289063 179.753906 23.8125 179.21875 23.8125 178.292969 23.8125 177.578125 23.476563 177.054688 22.898438 176.464844L22.898438 176.40625 23.757813 176.40625 23.757813 176.160156 23.5 174.746094 23.199219 174.746094M19.71875 172.304688C19.414063 171.980469 19.003906 171.492188 19.003906 170.910156 19.003906 170.398438 19.25 170.019531 20.195313 170.019531L22.40625 170.019531C23.1875 170.019531 23.375 170.085938 23.375 170.878906L23.699219 170.878906 23.699219 168.234375 23.375 168.234375C23.375 169.035156 23.175781 169.09375 22.40625 169.09375L19.695313 169.09375C19.382813 168.726563 19.003906 168.265625 19.003906 167.8125 19.003906 167.285156 19.25 166.851563 20.265625 166.851563L22.40625 166.851563C23.085938 166.851563 23.375 166.882813 23.375 167.644531L23.699219 167.644531 23.699219 165.121094 23.375 165.121094C23.375 165.890625 23.109375 165.925781 22.40625 165.925781L20.128906 165.925781C18.78125 165.925781 18.289063 166.492188 18.289063 167.363281 18.289063 167.953125 18.613281 168.523438 19.214844 169.136719L19.214844 169.183594C18.679688 169.40625 18.289063 169.785156 18.289063 170.421875 18.289063 171.179688 18.703125 171.691406 19.226563 172.296875L19.226563 172.339844 18.320313 172.339844 18.320313 172.605469 18.648438 174 18.96875 174C18.96875 174 18.945313 173.867188 18.945313 173.699219 18.945313 173.390625 19.046875 173.230469 19.449219 173.230469L22.574219 173.230469C23.242188 173.230469 23.375 173.3125 23.375 174.015625L23.699219 174.015625 23.699219 171.46875 23.375 171.46875C23.375 172.160156 23.242188 172.304688 22.617188 172.304688L19.71875 172.304688M15.824219 162.949219L15.824219 163.242188 16.214844 164.679688 16.527344 164.679688C16.527344 164.679688 16.503906 164.546875 16.503906 164.367188 16.503906 163.945313 16.59375 163.878906 17.09375 163.878906L23.367188 163.878906C23.511719 163.609375 23.8125 162.960938 23.8125 162.015625 23.8125 160.464844 22.761719 159.335938 20.765625 159.335938 19.316406 159.335938 18.289063 160.09375 18.289063 161.199219 18.289063 161.949219 18.769531 162.527344 19.238281 162.917969L19.238281 162.949219zM19.726563 162.949219C19.460938 162.75 19.046875 162.257813 19.046875 161.691406 19.046875 160.632813 20.050781 160.351563 21.125 160.351563 22.359375 160.351563 23.355469 160.753906 23.355469 161.8125 23.355469 162.402344 23.085938 162.738281 22.828125 162.949219L19.726563 162.949219M22.105469 154.339844C22.574219 154.695313 22.976563 155.042969 22.976563 155.945313 22.976563 156.839844 22.273438 157.6875 20.734375 157.6875L20.734375 154.160156C19.171875 154.21875 18.289063 155.019531 18.289063 156.238281 18.289063 157.542969 19.179688 158.589844 21.046875 158.589844 22.839844 158.589844 23.8125 157.554688 23.8125 156.214844 23.8125 155.066406 23.109375 154.527344 22.261719 154.128906zM20.320313 157.699219C19.28125 157.609375 18.734375 157.160156 18.734375 156.402344 18.734375 155.613281 19.492188 155.242188 20.320313 155.210938L20.320313 157.699219M18.320313 151.726563L18.320313 151.996094 18.65625 153.378906 18.96875 153.378906C18.96875 153.378906 18.945313 153.257813 18.945313 153.035156 18.945313 152.632813 19.148438 152.632813 19.550781 152.632813L22.617188 152.632813C23.242188 152.632813 23.375 152.710938 23.375 153.445313L23.699219 153.445313 23.699219 150.65625 23.375 150.65625C23.375 151.492188 23.265625 151.707031 22.5625 151.707031L20.019531 151.707031C19.570313 151.4375 19.101563 151.082031 19.101563 150.824219 19.101563 150.691406 19.484375 150.46875 19.484375 150.101563 19.484375 149.855469 19.304688 149.609375 18.882813 149.609375 18.5 149.609375 18.257813 149.820313 18.257813 150.257813 18.257813 150.792969 18.648438 151.125 19.472656 151.695313L19.472656 151.726563 18.320313 151.726563M18.289063 143.992188C18.289063 145.496094 19.382813 146.488281 21 146.488281 22.808594 146.488281 23.8125 145.554688 23.8125 143.992188 23.8125 142.542969 22.828125 141.515625 20.957031 141.515625 19.304688 141.515625 18.289063 142.464844 18.289063 143.992188zM18.710938 144.035156C18.710938 143.042969 19.640625 142.542969 21.011719 142.542969 22.828125 142.542969 23.367188 143.03125 23.367188 143.945313 23.375 144.90625 22.628906 145.453125 20.855469 145.453125 19.425781 145.453125 18.710938 144.882813 18.710938 144.035156M18.421875 140.777344L18.890625 140.777344 18.890625 139.933594 22.371094 139.933594C23.242188 139.933594 23.375 140.054688 23.375 140.867188L23.699219 140.867188 23.699219 137.867188 23.375 137.867188C23.375 138.792969 23.242188 139.007813 22.371094 139.007813L18.890625 139.007813 18.890625 137.644531 18.421875 137.644531 18.421875 139.007813 17.429688 139.007813C16.492188 139.007813 16.15625 138.882813 16.15625 138.46875 16.15625 137.910156 17.007813 137.855469 17.007813 137.300781 17.007813 137.042969 16.851563 136.84375 16.527344 136.84375 16.023438 136.84375 15.746094 137.367188 15.746094 138.09375 15.746094 138.871094 16.046875 139.273438 16.558594 139.574219 17.074219 139.863281 17.574219 139.933594 18.421875 139.933594L18.421875 140.777344M21.871094 134.035156L23.789063 134 23.789063 133.765625 23.53125 133.53125 23.53125 133.511719C23.65625 133.21875 23.824219 132.886719 23.824219 132.238281 23.824219 131.234375 23.421875 130.363281 22.371094 130.363281 21.546875 130.363281 21.132813 130.910156 20.597656 131.925781 20.117188 132.863281 19.839844 133.230469 19.40625 133.230469 18.902344 133.230469 18.667969 132.84375 18.667969 132.328125 18.667969 131.648438 18.992188 131.234375 20.050781 130.988281L20.050781 130.6875 18.34375 130.722656 18.34375 130.945313 18.578125 131.132813 18.578125 131.144531C18.445313 131.425781 18.289063 131.757813 18.289063 132.316406 18.289063 133.277344 18.78125 134.023438 19.695313 134.023438 20.519531 134.023438 20.910156 133.566406 21.421875 132.550781 21.9375 131.515625 22.148438 131.300781 22.671875 131.300781 23.199219 131.300781 23.410156 131.703125 23.410156 132.261719 23.410156 133.085938 23.019531 133.511719 21.871094 133.746094L21.871094 134.035156M22.695313 126.800781C23.007813 127.078125 23.152344 127.226563 23.152344 127.582031 23.152344 128.015625 22.886719 128.117188 22.09375 128.117188L18.890625 128.117188 18.890625 126.855469 18.421875 126.855469 18.421875 128.117188 16.894531 128.105469 16.894531 128.398438C17.84375 128.796875 18.3125 129.132813 18.632813 129.65625L18.890625 129.65625 18.890625 129.042969 22.40625 129.042969C23.410156 129.042969 23.8125 128.71875 23.8125 127.972656 23.8125 127.257813 23.476563 127.023438 22.875 126.589844L22.695313 126.800781M23.199219 120.445313L23.199219 120.558594C23.199219 121.09375 23.121094 121.226563 22.460938 121.226563L18.367188 121.226563 18.367188 121.496094 18.535156 123.054688 18.847656 123.054688C18.847656 122.34375 18.902344 122.152344 19.492188 122.152344L22.429688 122.152344C22.820313 122.597656 23.097656 122.957031 23.097656 123.523438 23.097656 124.105469 22.761719 124.527344 21.625 124.527344L18.367188 124.527344 18.367188 124.773438 18.535156 126.214844 18.847656 126.214844C18.859375 125.609375 18.902344 125.453125 19.503906 125.453125L21.769531 125.453125C23.289063 125.453125 23.8125 124.921875 23.8125 123.992188 23.8125 123.277344 23.476563 122.753906 22.898438 122.164063L22.898438 122.105469 23.757813 122.105469 23.757813 121.863281 23.5 120.445313 23.199219 120.445313M23.5 114.335938L23.199219 114.335938 23.199219 114.570313C23.199219 114.980469 23.085938 115.128906 22.507813 115.128906L15.824219 115.128906 15.824219 115.429688 16.214844 116.835938 16.527344 116.835938C16.527344 116.835938 16.503906 116.644531 16.503906 116.546875 16.503906 116.109375 16.605469 116.054688 17.09375 116.054688L18.554688 116.054688C18.367188 116.398438 18.289063 116.769531 18.289063 117.136719 18.289063 118.542969 19.414063 119.699219 21.257813 119.699219 22.683594 119.699219 23.789063 119.054688 23.789063 117.792969 23.789063 117.058594 23.367188 116.488281 22.984375 116.066406L22.984375 116.019531 23.757813 116.019531 23.757813 115.765625zM22.574219 116.054688C22.839844 116.441406 22.984375 116.746094 22.984375 117.269531 22.984375 118.21875 22.359375 118.730469 20.820313 118.730469 19.414063 118.730469 18.734375 118.09375 18.734375 117.15625 18.734375 116.46875 19.171875 116.144531 19.628906 116.054688L22.574219 116.054688M22.105469 109.441406C22.574219 109.796875 22.976563 110.144531 22.976563 111.046875 22.976563 111.9375 22.273438 112.785156 20.734375 112.785156L20.734375 109.261719C19.171875 109.316406 18.289063 110.121094 18.289063 111.335938 18.289063 112.640625 19.179688 113.691406 21.046875 113.691406 22.839844 113.691406 23.8125 112.652344 23.8125 111.3125 23.8125 110.164063 23.109375 109.628906 22.261719 109.226563zM20.320313 112.796875C19.28125 112.710938 18.734375 112.261719 18.734375 111.503906 18.734375 110.710938 19.492188 110.34375 20.320313 110.3125L20.320313 112.796875M20.273438 103.503906C18.992188 103.503906 18.289063 103.984375 18.289063 104.996094 18.289063 105.699219 18.691406 106.191406 19.226563 106.796875L19.226563 106.839844 18.320313 106.828125 18.320313 107.085938 18.648438 108.5 18.96875 108.5C18.96875 108.5 18.945313 108.390625 18.945313 108.199219 18.945313 107.898438 19.035156 107.730469 19.4375 107.730469L22.574219 107.730469C23.199219 107.730469 23.386719 107.765625 23.386719 108.515625L23.699219 108.515625 23.699219 105.957031 23.386719 105.957031C23.386719 106.761719 23.199219 106.804688 22.574219 106.804688L19.707031 106.804688C19.40625 106.472656 19.003906 106.058594 19.003906 105.457031 19.003906 104.953125 19.214844 104.429688 20.554688 104.429688L22.574219 104.429688C23.199219 104.429688 23.386719 104.464844 23.386719 105.257813L23.699219 105.257813 23.699219 102.679688 23.386719 102.679688C23.386719 103.425781 23.199219 103.503906 22.574219 103.503906L20.273438 103.503906M22.695313 99.101563C23.007813 99.378906 23.152344 99.523438 23.152344 99.882813 23.152344 100.316406 22.886719 100.417969 22.09375 100.417969L18.890625 100.417969 18.890625 99.15625 18.421875 99.15625 18.421875 100.417969 16.894531 100.40625 16.894531 100.695313C17.84375 101.097656 18.3125 101.433594 18.632813 101.957031L18.890625 101.957031 18.890625 101.34375 22.40625 101.34375C23.410156 101.34375 23.8125 101.019531 23.8125 100.273438 23.8125 99.558594 23.476563 99.324219 22.875 98.890625L22.695313 99.101563M21.871094 98.4375L23.789063 98.402344 23.789063 98.167969 23.53125 97.933594 23.53125 97.910156C23.65625 97.621094 23.824219 97.285156 23.824219 96.640625 23.824219 95.632813 23.421875 94.765625 22.371094 94.765625 21.546875 94.765625 21.132813 95.3125 20.597656 96.324219 20.117188 97.265625 19.839844 97.632813 19.40625 97.632813 18.902344 97.632813 18.667969 97.242188 18.667969 96.726563 18.667969 96.046875 18.992188 95.632813 20.050781 95.390625L20.050781 95.089844 18.34375 95.121094 18.34375 95.34375 18.578125 95.535156 18.578125 95.546875C18.445313 95.824219 18.289063 96.160156 18.289063 96.71875 18.289063 97.675781 18.78125 98.421875 19.695313 98.421875 20.519531 98.421875 20.910156 97.96875 21.421875 96.949219 21.9375 95.914063 22.148438 95.699219 22.671875 95.699219 23.199219 95.699219 23.410156 96.101563 23.410156 96.660156 23.410156 97.488281 23.019531 97.910156 21.871094 98.144531L21.871094 98.4375M196.21875 18.441406L196.140625 16.234375 188.984375 16.234375 188.984375 16.636719C189.953125 16.636719 190.289063 16.824219 190.289063 17.753906L190.289063 23.511719C190.289063 24.503906 190.074219 24.667969 188.984375 24.667969L188.984375 25.070313 192.925781 25.070313 192.925781 24.667969C191.875 24.667969 191.527344 24.503906 191.527344 23.589844L191.527344 20.765625 193.113281 20.765625C194.269531 20.765625 194.539063 20.941406 194.539063 22.03125L194.996094 22.03125 194.996094 18.910156 194.539063 18.910156C194.539063 20 194.269531 20.242188 193.113281 20.242188L191.527344 20.242188 191.527344 16.839844 193.664063 16.839844C195.425781 16.839844 195.546875 17.160156 195.789063 18.441406L196.21875 18.441406M200.140625 24.234375C200.222656 24.828125 200.359375 25.136719 200.949219 25.136719 201.632813 25.136719 201.957031 24.855469 202.402344 24.210938L202.199219 23.992188C202.011719 24.195313 201.824219 24.332031 201.566406 24.332031 201.285156 24.332031 201.164063 24.222656 201.164063 23.671875L201.164063 20.617188C201.164063 19.21875 200.613281 18.546875 199.148438 18.546875 197.679688 18.546875 196.78125 19.273438 196.78125 20.027344 196.78125 20.46875 197.078125 20.671875 197.34375 20.671875 197.722656 20.671875 197.9375 20.46875 197.9375 20.054688 197.9375 19.246094 198.070313 18.964844 198.839844 18.964844 199.644531 18.964844 200.046875 19.40625 200.046875 20.578125L200.046875 21.171875C198.890625 21.53125 196.511719 21.882813 196.511719 23.65625 196.511719 24.519531 197.078125 25.164063 198.109375 25.164063 198.972656 25.164063 199.457031 24.785156 200.089844 24.234375zM200.046875 23.832031C199.589844 24.210938 199.105469 24.425781 198.664063 24.425781 198.085938 24.425781 197.695313 24.007813 197.695313 23.335938 197.695313 22.285156 198.824219 21.921875 200.046875 21.613281L200.046875 23.832031M208.796875 18.710938L206.445313 18.710938 206.445313 19.097656C206.929688 19.097656 207.210938 19.164063 207.210938 19.460938 207.210938 19.679688 207.128906 19.839844 207.117188 19.90625L205.960938 22.945313 205.679688 23.765625 205.597656 23.765625 205.339844 22.960938 204.199219 19.960938C204.117188 19.773438 204.0625 19.609375 204.0625 19.4375 204.0625 19.21875 204.238281 19.097656 204.761719 19.097656L204.761719 18.710938 201.925781 18.710938 201.925781 19.097656C202.503906 19.097656 202.664063 19.246094 203.015625 20.082031L205.019531 25.152344 205.664063 25.152344 207.789063 19.984375C208.058594 19.285156 208.273438 19.097656 208.796875 19.097656L208.796875 18.710938M211.96875 18.546875C210.15625 18.546875 208.957031 19.863281 208.957031 21.816406 208.957031 23.992188 210.089844 25.203125 211.96875 25.203125 213.71875 25.203125 214.953125 24.023438 214.953125 21.761719 214.953125 19.773438 213.8125 18.546875 211.96875 18.546875zM211.914063 19.058594C213.113281 19.058594 213.71875 20.175781 213.71875 21.828125 213.71875 24.023438 213.128906 24.667969 212.023438 24.667969 210.867188 24.679688 210.207031 23.777344 210.207031 21.640625 210.207031 19.917969 210.894531 19.058594 211.914063 19.058594M217.859375 18.585938L217.539063 18.585938 215.871094 18.992188 215.871094 19.367188C215.871094 19.367188 216.019531 19.339844 216.289063 19.339844 216.773438 19.339844 216.773438 19.582031 216.773438 20.066406L216.773438 23.765625C216.773438 24.519531 216.679688 24.679688 215.789063 24.679688L215.789063 25.070313 219.152344 25.070313 219.152344 24.679688C218.144531 24.679688 217.886719 24.546875 217.886719 23.699219L217.886719 20.632813C218.210938 20.09375 218.640625 19.527344 218.949219 19.527344 219.113281 19.527344 219.382813 19.984375 219.824219 19.984375 220.121094 19.984375 220.414063 19.773438 220.414063 19.261719 220.414063 18.804688 220.160156 18.507813 219.636719 18.507813 218.992188 18.507813 218.589844 18.976563 217.902344 19.972656L217.859375 19.972656 217.859375 18.585938M222.449219 15.75C221.980469 15.75 221.683594 16.101563 221.683594 16.503906 221.683594 16.921875 221.992188 17.269531 222.449219 17.269531 222.921875 17.269531 223.21875 16.921875 223.21875 16.503906 223.21875 16.101563 222.921875 15.75 222.449219 15.75zM223.957031 24.691406C223.054688 24.691406 222.988281 24.492188 222.988281 23.710938L222.988281 18.585938 222.640625 18.585938 220.945313 18.964844 220.945313 19.355469C220.945313 19.355469 221.09375 19.328125 221.28125 19.328125 221.671875 19.328125 221.871094 19.382813 221.871094 19.960938L221.871094 23.710938C221.871094 24.476563 221.832031 24.691406 220.929688 24.691406L220.929688 25.070313 223.957031 25.070313 223.957031 24.691406M228.242188 23.859375C227.90625 24.234375 227.730469 24.410156 227.296875 24.410156 226.773438 24.410156 226.652344 24.089844 226.652344 23.132813L226.652344 19.273438 228.171875 19.273438 228.171875 18.710938 226.652344 18.710938 226.667969 16.867188 226.316406 16.867188C225.832031 18.007813 225.429688 18.574219 224.796875 18.964844L224.796875 19.273438 225.539063 19.273438 225.539063 23.511719C225.539063 24.71875 225.925781 25.203125 226.828125 25.203125 227.6875 25.203125 227.972656 24.800781 228.496094 24.074219L228.242188 23.859375M234.082031 23.148438C233.652344 23.710938 233.234375 24.195313 232.144531 24.195313 231.070313 24.195313 230.046875 23.347656 230.046875 21.492188L234.296875 21.492188C234.230469 19.609375 233.261719 18.546875 231.796875 18.546875 230.222656 18.546875 228.957031 19.621094 228.957031 21.867188 228.957031 24.035156 230.207031 25.203125 231.820313 25.203125 233.207031 25.203125 233.851563 24.355469 234.339844 23.335938zM230.03125 20.996094C230.140625 19.746094 230.679688 19.085938 231.59375 19.085938 232.546875 19.085938 232.992188 20 233.03125 20.996094L230.03125 20.996094M245.621094 18.441406L245.539063 16.234375 238.382813 16.234375 238.382813 16.636719C239.351563 16.636719 239.6875 16.824219 239.6875 17.753906L239.6875 23.511719C239.6875 24.503906 239.472656 24.667969 238.382813 24.667969L238.382813 25.070313 242.324219 25.070313 242.324219 24.667969C241.273438 24.667969 240.925781 24.503906 240.925781 23.589844L240.925781 20.765625 242.511719 20.765625C243.667969 20.765625 243.9375 20.941406 243.9375 22.03125L244.394531 22.03125 244.394531 18.910156 243.9375 18.910156C243.9375 20 243.667969 20.242188 242.511719 20.242188L240.925781 20.242188 240.925781 16.839844 243.0625 16.839844C244.828125 16.839844 244.945313 17.160156 245.1875 18.441406L245.621094 18.441406M248.0625 18.585938L247.738281 18.585938 246.070313 18.992188 246.070313 19.367188C246.070313 19.367188 246.21875 19.339844 246.488281 19.339844 246.972656 19.339844 246.972656 19.582031 246.972656 20.066406L246.972656 23.765625C246.972656 24.519531 246.878906 24.679688 245.992188 24.679688L245.992188 25.070313 249.351563 25.070313 249.351563 24.679688C248.34375 24.679688 248.089844 24.546875 248.089844 23.699219L248.089844 20.632813C248.410156 20.09375 248.839844 19.527344 249.148438 19.527344 249.3125 19.527344 249.582031 19.984375 250.023438 19.984375 250.320313 19.984375 250.617188 19.773438 250.617188 19.261719 250.617188 18.804688 250.359375 18.507813 249.835938 18.507813 249.191406 18.507813 248.789063 18.976563 248.101563 19.972656L248.0625 19.972656 248.0625 18.585938M257.964844 24.464844L257.828125 24.464844C257.183594 24.464844 257.019531 24.371094 257.019531 23.578125L257.019531 18.640625 256.699219 18.640625 254.816406 18.84375 254.816406 19.21875C255.675781 19.21875 255.90625 19.285156 255.90625 20L255.90625 23.535156C255.367188 24.007813 254.9375 24.34375 254.25 24.34375 253.550781 24.34375 253.039063 23.941406 253.039063 22.566406L253.039063 18.640625 252.742188 18.640625 251.007813 18.84375 251.007813 19.21875C251.734375 19.230469 251.921875 19.285156 251.921875 20.015625L251.921875 22.742188C251.921875 24.574219 252.570313 25.203125 253.6875 25.203125 254.546875 25.203125 255.179688 24.800781 255.890625 24.101563L255.957031 24.101563 255.957031 25.136719 256.253906 25.136719 257.964844 24.828125 257.964844 24.464844M260.351563 15.75C259.878906 15.75 259.582031 16.101563 259.582031 16.503906 259.582031 16.921875 259.890625 17.269531 260.351563 17.269531 260.820313 17.269531 261.117188 16.921875 261.117188 16.503906 261.117188 16.101563 260.820313 15.75 260.351563 15.75zM261.855469 24.691406C260.953125 24.691406 260.886719 24.492188 260.886719 23.710938L260.886719 18.585938 260.539063 18.585938 258.84375 18.964844 258.84375 19.355469C258.84375 19.355469 258.992188 19.328125 259.179688 19.328125 259.570313 19.328125 259.773438 19.382813 259.773438 19.960938L259.773438 23.710938C259.773438 24.476563 259.730469 24.691406 258.828125 24.691406L258.828125 25.070313 261.855469 25.070313 261.855469 24.691406M266.140625 23.859375C265.804688 24.234375 265.628906 24.410156 265.199219 24.410156 264.675781 24.410156 264.554688 24.089844 264.554688 23.132813L264.554688 19.273438 266.074219 19.273438 266.074219 18.710938 264.554688 18.710938 264.566406 16.867188 264.21875 16.867188C263.734375 18.007813 263.328125 18.574219 262.695313 18.964844L262.695313 19.273438 263.4375 19.273438 263.4375 23.511719C263.4375 24.71875 263.828125 25.203125 264.726563 25.203125 265.589844 25.203125 265.871094 24.800781 266.394531 24.074219L266.140625 23.859375" />
</svg>